<!-- Generated by IcoMoon.io -->

<svg id="svg2" xmlns:rdf="http://www.w3.org/1999/02/22-rdf-syntax-ns#" xmlns="http://www.w3.org/2000/svg" height="32" width="32" version="1.1" xmlns:cc="http://creativecommons.org/ns#" xmlns:dc="http://purl.org/dc/elements/1.1/" viewBox="0 0 32 32" fill="#ffffff">

 <path id="path6" d="M23.252,21.107,18.852,16.078,23.252,11.048c0.74834-0.74834,0.74834-1.961,0-2.7078-0.74834-0.74675-1.961-0.74675-2.7078,0l-4.231,4.8368-4.23-4.8349c-0.74834-0.74834-1.961-0.74834-2.7078,0-0.74675,0.74834-0.74675,1.961,0,2.7078l4.3991,5.0278-4.4007,5.0294c-0.74675,0.74834-0.74675,1.9578,0,2.7046,0.74834,0.74834,1.961,0.74834,2.7078,0l4.2316-4.8331,4.23,4.8331c0.74834,0.74834,1.961,0.74834,2.7078,0,0.74675-0.74834,0.74834-1.9562,0.0017-2.7046z"/>

</svg>

