<?xml version="1.0" encoding="utf-8"?>
<!-- Generator: Adobe Illustrator 16.0.0, SVG Export Plug-In . SVG Version: 6.00 Build 0)  -->
<!DOCTYPE svg PUBLIC "-//W3C//DTD SVG 1.1//EN" "http://www.w3.org/Graphics/SVG/1.1/DTD/svg11.dtd">
<svg version="1.1" id="Layer_1" xmlns="http://www.w3.org/2000/svg" xmlns:xlink="http://www.w3.org/1999/xlink" x="0px" y="0px"
	 width="108.844px" height="106.811px" viewBox="0 0 108.844 106.811" enable-background="new 0 0 108.844 106.811"
	 xml:space="preserve">
<g>
	<g>
		<path fill="#C0C0C1" stroke="#C0C0C1" stroke-miterlimit="10" d="M34.39,82.258c0.486,0.322,0.981,0.634,1.484,0.934
			l52.459-44.517c-0.213-0.544-0.438-1.083-0.676-1.613L34.39,82.258z"/>
		<path fill="#C0C0C1" stroke="#C0C0C1" stroke-miterlimit="10" d="M21.099,66.5c0.232,0.529,0.478,1.052,0.734,1.567l53.854-45.696
			c-0.468-0.338-0.942-0.665-1.427-0.979L21.099,66.5z"/>
		<path fill="#C0C0C1" stroke="#C0C0C1" stroke-miterlimit="10" d="M28.967,77.87c0.4,0.394,0.81,0.777,1.228,1.15l54.948-46.625
			c-0.302-0.474-0.612-0.939-0.935-1.397L28.967,77.87z"/>
		<path fill="#C0C0C1" stroke="#C0C0C1" stroke-miterlimit="10" d="M18.047,51.113c-0.005,0.259-0.021,0.517-0.021,0.777
			c0,0.469,0.019,0.934,0.036,1.399l43.679-37.062c-0.709-0.146-1.428-0.264-2.149-0.366L18.047,51.113z"/>
		<path fill="#C0C0C1" stroke="#C0C0C1" stroke-miterlimit="10" d="M18.822,59.444c0.13,0.613,0.275,1.22,0.437,1.82l50.138-42.542
			c-0.566-0.258-1.142-0.5-1.724-0.729L18.822,59.444z"/>
		<path fill="#C0C0C1" stroke="#C0C0C1" stroke-miterlimit="10" d="M48.955,87.878c0.748,0.113,1.508,0.197,2.271,0.265
			l39.488-33.507c0.057-0.754,0.093-1.513,0.103-2.277L48.955,87.878z"/>
		<path fill="#C0C0C1" stroke="#C0C0C1" stroke-miterlimit="10" d="M40.886,85.668c0.591,0.237,1.188,0.459,1.794,0.666
			l47.647-40.428c-0.105-0.632-0.229-1.259-0.365-1.879L40.886,85.668z"/>
		<path fill="#C0C0C1" stroke="#C0C0C1" stroke-miterlimit="10" d="M25.498,73.946l55.397-47.005
			c-0.383-0.406-0.774-0.804-1.176-1.192L24.512,72.593C24.832,73.052,25.16,73.503,25.498,73.946z"/>
		<path fill="#C0C0C1" stroke="#C0C0C1" stroke-miterlimit="10" d="M60.378,87.796c1.174-0.192,2.328-0.441,3.46-0.746
			l23.729-20.135c0.489-1.074,0.928-2.176,1.312-3.302L60.378,87.796z"/>
		<path fill="#C0C0C1" stroke="#C0C0C1" stroke-miterlimit="10" d="M19.857,40.519c-0.312,0.945-0.586,1.907-0.819,2.886
			l32.775-27.81c-0.998,0.07-1.987,0.173-2.963,0.322L19.857,40.519z"/>
		<polyline fill="#C0C0C1" stroke="#C0C0C1" stroke-linecap="round" stroke-linejoin="round" stroke-miterlimit="10" points="
			20.359,34.67 44.177,14.459 40.607,15.298 21.234,31.736 20.359,34.67 		"/>
	</g>
	<circle fill="none" cx="54.422" cy="51.3" r="37.9"/>
	
		<circle fill="none" stroke="#5A646A" stroke-width="3" stroke-linecap="round" stroke-linejoin="round" stroke-miterlimit="10" cx="54.422" cy="51.3" r="37.9"/>
	
		<circle fill="none" stroke="#5A646A" stroke-width="3" stroke-linecap="round" stroke-linejoin="round" stroke-miterlimit="10" cx="54.422" cy="51.095" r="43.495"/>
</g>
</svg>
